P3
4 3
255
0 0 0 255 0 0 0 255 0 0 0 255
128 128 128 255 0 0 0 255 0 0 0 255
255 255 255 255 0 0 0 255 0 0 0 255
