P3
3 4
255
0 0 0 128 128 128 255 255 255
255 0 0 255 0 0 255 0 0
0 255 0 0 255 0 0 255 0
0 0 255 0 0 255 0 0 255
