P3
3 4
255
0 0 0 172 153 119 255 255 238
100 88 69 100 88 69 100 88 69
196 174 136 196 174 136 196 174 136
48 42 33 48 42 33 48 42 33
